<svg version="1.1" viewBox="0 0 499 317" height="317px" width="500px" xmlns:xlink="http://www.w3.org/1999/xlink" xmlns="http://www.w3.org/2000/svg">
<g id="surface1">
<path d="M 436.070312 167.332031 L 425.246094 167.332031 L 436.066406 152.132812 L 436.070312 152.136719 L 436.074219 152.132812 L 446.898438 167.332031 Z M 413.511719 130.320312 L 373.144531 187.269531 L 411.078125 187.269531 L 417.53125 178.210938 L 454.617188 178.210938 L 461.066406 187.269531 L 499 187.269531 L 458.632812 130.320312 Z M 224.667969 187.269531 L 264.335938 187.269531 L 307.988281 130.378906 L 264.898438 130.378906 L 244.503906 157.648438 L 224.113281 130.378906 L 181.019531 130.378906 Z M 0 130.410156 L 0 187.269531 L 36.457031 187.269531 L 36.457031 160.390625 L 76.894531 187.269531 L 114.328125 187.269531 L 114.328125 130.320312 L 76.359375 130.320312 L 76.359375 156.574219 L 36.457031 130.410156 Z M 129.453125 130.074219 L 129.453125 187.023438 L 170.867188 187.023438 L 170.867188 130.074219 Z M 317.734375 130.074219 L 317.734375 187.023438 L 359.152344 187.023438 L 359.152344 130.074219 Z M 481.894531 128 C 483.039062 128 484.113281 128.210938 485.125 128.632812 C 486.136719 129.054688 487.035156 129.671875 487.820312 130.476562 C 488.558594 131.242188 489.125 132.113281 489.515625 133.097656 C 489.910156 134.078125 490.105469 135.128906 490.105469 136.230469 C 490.105469 137.371094 489.898438 138.4375 489.484375 139.4375 C 489.070312 140.4375 488.464844 141.3125 487.679688 142.066406 C 486.878906 142.835938 485.980469 143.429688 484.984375 143.839844 C 483.988281 144.246094 482.960938 144.457031 481.894531 144.457031 C 480.789062 144.457031 479.734375 144.242188 478.742188 143.816406 C 477.742188 143.390625 476.855469 142.769531 476.070312 141.957031 C 475.300781 141.164062 474.710938 140.277344 474.308594 139.296875 C 473.898438 138.320312 473.695312 137.296875 473.695312 136.230469 C 473.695312 135.125 473.914062 134.058594 474.34375 133.042969 C 474.777344 132.019531 475.394531 131.113281 476.199219 130.320312 C 476.96875 129.558594 477.835938 128.980469 478.804688 128.589844 C 479.773438 128.195312 480.804688 128 481.894531 128 Z M 481.898438 129.507812 C 482.828125 129.507812 483.695312 129.679688 484.515625 130.023438 C 485.335938 130.367188 486.074219 130.875 486.726562 131.539062 C 487.339844 132.164062 487.8125 132.875 488.136719 133.679688 C 488.457031 134.480469 488.621094 135.339844 488.621094 136.246094 C 488.621094 137.167969 488.449219 138.039062 488.113281 138.855469 C 487.777344 139.671875 487.285156 140.390625 486.640625 141.015625 C 485.992188 141.636719 485.257812 142.113281 484.441406 142.449219 C 483.625 142.785156 482.765625 142.949219 481.878906 142.949219 C 480.976562 142.949219 480.113281 142.773438 479.289062 142.425781 C 478.46875 142.070312 477.734375 141.5625 477.097656 140.90625 C 476.46875 140.265625 475.988281 139.554688 475.664062 138.761719 C 475.34375 137.972656 475.179688 137.128906 475.179688 136.242188 C 475.179688 135.328125 475.351562 134.453125 475.699219 133.628906 C 476.042969 132.800781 476.546875 132.058594 477.207031 131.398438 C 477.839844 130.78125 478.550781 130.316406 479.347656 129.992188 C 480.136719 129.671875 480.988281 129.507812 481.902344 129.507812 Z M 478.433594 131.542969 L 482.050781 131.542969 C 483.328125 131.542969 484.292969 131.765625 484.957031 132.203125 C 485.621094 132.644531 485.953125 133.292969 485.953125 134.152344 C 485.953125 134.746094 485.78125 135.253906 485.445312 135.679688 C 485.109375 136.105469 484.640625 136.410156 484.039062 136.578125 L 486.039062 140.558594 L 483.316406 140.558594 L 481.621094 136.96875 L 480.90625 136.96875 L 480.90625 140.558594 L 478.433594 140.558594 Z M 480.90625 133.09375 L 481.640625 133.09375 C 482.257812 133.09375 482.703125 133.191406 482.984375 133.394531 C 483.261719 133.589844 483.402344 133.90625 483.402344 134.335938 C 483.402344 134.722656 483.265625 135.015625 483 135.210938 C 482.734375 135.40625 482.328125 135.503906 481.785156 135.503906 L 480.90625 135.503906 Z M 480.90625 133.09375" style="stroke:none;fill-rule:evenodd;fill:rgb(0%,0%,0%);fill-opacity:1;"></path>
<path d="M 187.175781 11.0625 L 93.625 104.054688 L 197.542969 104.054688 L 239.132812 63.089844 Z M 327.910156 104.054688 L 405.378906 104.054688 L 353.421875 52.027344 L 301.460938 0 L 197.546875 0 L 301.460938 104.054688 Z M 327.910156 104.054688" style="stroke:none;fill-rule:evenodd;fill:rgb(0%,0%,0%);fill-opacity:1;"></path>
<path d="M 311.824219 306.03125 L 405.375 213.042969 L 301.457031 213.042969 L 259.867188 254.003906 Z M 171.09375 213.042969 L 93.625 213.042969 L 145.582031 265.070312 L 197.542969 317.09375 L 301.457031 317.09375 L 249.5 265.070312 L 197.542969 213.042969 Z M 171.09375 213.042969" style="stroke:none;fill-rule:evenodd;fill:rgb(0%,0%,0%);fill-opacity:1;"></path>
</g>
</svg>
