<svg xml:space="preserve" style="enable-background:new 0 0 720 456.9;" viewBox="0 0 720 456.9" y="0px" x="0px" xmlns:xlink="http://www.w3.org/1999/xlink" xmlns="http://www.w3.org/2000/svg" version="1.1">
<style type="text/css">
	.st0{fill-rule:evenodd;clip-rule:evenodd;}
	.st1{fill-rule:evenodd;clip-rule:evenodd;fill:#FFFFFF;}
</style>
<g id="Layer_2">
	<rect height="501" width="801" class="st0" y="-17" x="-23"></rect>
</g>
<g id="Layer_1">
	<g id="Layer_x0020_1">
		<g id="_2842077729760">
			<path d="M629.2,241.1h-15.6l15.6-21.9l0,0l0,0l15.6,21.9H629.2z M596.7,187.8L596.7,187.8l-58.2,82.1h54.7l9.3-13.1
				h26.8H656l9.3,13.1H720l-58.2-82.1H596.7L596.7,187.8z M324.2,269.9L324.2,269.9h57.2l63-82h-62.2l-29.4,39.3l-29.4-39.3h-62.2
				L324.2,269.9z M0,187.9L0,187.9v81.9h52.6v-38.7l58.3,38.7h54v-82.1h-54.8v37.8l-57.6-37.7L0,187.9L0,187.9z M186.8,187.4
				L186.8,187.4v82.1h59.8v-82.1L186.8,187.4L186.8,187.4z M458.5,187.4L458.5,187.4v82.1h59.8v-82.1L458.5,187.4L458.5,187.4z
				 M695.3,184.5L695.3,184.5c1.6,0,3.2,0.3,4.7,0.9c1.5,0.6,2.8,1.5,3.9,2.7c1.1,1.1,1.9,2.4,2.4,3.8c0.6,1.4,0.9,2.9,0.9,4.5
				c0,1.6-0.3,3.2-0.9,4.6c-0.6,1.4-1.5,2.7-2.6,3.8c-1.2,1.1-2.5,2-3.9,2.6c-1.4,0.6-2.9,0.9-4.5,0.9c-1.6,0-3.1-0.3-4.6-0.9
				c-1.4-0.6-2.7-1.5-3.9-2.7c-1.1-1.1-2-2.4-2.5-3.8c-0.6-1.4-0.9-2.9-0.9-4.4c0-1.6,0.3-3.1,0.9-4.6c0.6-1.5,1.5-2.8,2.7-3.9
				c1.1-1.1,2.4-1.9,3.8-2.5C692.3,184.7,693.7,184.4,695.3,184.5L695.3,184.5z M695.3,186.6L695.3,186.6c1.3,0,2.6,0.2,3.8,0.7
				c1.2,0.5,2.2,1.2,3.2,2.2c0.9,0.9,1.6,1.9,2,3.1c0.5,1.2,0.7,2.4,0.7,3.7c0,1.3-0.2,2.6-0.7,3.8c-0.5,1.2-1.2,2.2-2.1,3.1
				c-0.9,0.9-2,1.6-3.2,2.1c-1.2,0.5-2.4,0.7-3.7,0.7c-1.3,0-2.5-0.3-3.7-0.8c-1.2-0.5-2.2-1.2-3.2-2.2c-0.9-0.9-1.6-1.9-2.1-3.1
				c-0.5-1.1-0.7-2.3-0.7-3.6c0-1.3,0.2-2.6,0.7-3.8c0.5-1.2,1.2-2.3,2.2-3.2c0.9-0.9,1.9-1.6,3.1-2
				C692.8,186.9,694,186.6,695.3,186.6L695.3,186.6z M690.3,189.6L690.3,189.6h5.2c1.8,0,3.2,0.3,4.2,1s1.4,1.6,1.4,2.8
				c0,0.9-0.2,1.6-0.7,2.2c-0.5,0.6-1.2,1.1-2,1.3l2.9,5.7h-3.9l-2.4-5.2h-1v5.2h-3.6L690.3,189.6L690.3,189.6z M693.9,191.8
				L693.9,191.8h1.1c0.9,0,1.5,0.1,1.9,0.4c0.4,0.3,0.6,0.7,0.6,1.4c0,0.6-0.2,1-0.6,1.3c-0.4,0.3-1,0.4-1.8,0.4h-1.3L693.9,191.8
				L693.9,191.8z" class="st1"></path>
			<path d="M270.1,15.9l-135,134H285l60-59
				C345,90.9,270.1,15.9,270.1,15.9z M473.1,149.9h36.8h75l-75-75L435,0h-38.5H360h-75l75,75l75,75H473.1L473.1,149.9z" class="st1" id="Nivia_x0020_-_x0020_Sharp_x0020_Edge.cdr"></path>
			<path d="M449.9,441l135-134H435l-60,59L449.9,441L449.9,441z
				 M246.9,307h-36.8h-75l75,75l75,75h38.5H360h75l-75-75l-75-75H246.9L246.9,307z" class="st1" id="Nivia_x0020_-_x0020_Sharp_x0020_Edge.cdr_0"></path>
		</g>
	</g>
</g>
</svg>
